<svg width="1080" height="1080" viewBox="0 0 1080 1080" fill="none" xmlns="http://www.w3.org/2000/svg">
<path d="M553.986 653C472.671 653 472.671 524 553.986 524C635.301 524 635.375 653 553.986 653Z" fill="url(#paint0_radial_26_2)"/>
<path d="M295.483 517.77C296.86 525.92 358.753 558.364 406.689 575.365C413.946 577.939 365.005 613.151 286.811 601.726C235.153 594.161 212.6 523.346 172.591 494.958C163.361 488.407 264.704 468.91 306.574 472.419C379.743 478.658 424.069 563.979 410.597 555.517C353.356 519.72 294.701 513.13 295.483 517.77Z" fill="url(#paint1_linear_26_2)"/>
<path d="M440.265 380.385C483.828 421.478 481.186 457.142 501.052 493.899C504.772 500.891 446.292 500.422 387.923 444.681C349.346 407.846 368.876 335.933 351.131 288.707C347.002 277.77 441.381 321.91 473.895 349.487C530.962 397.963 521.624 494.797 515.04 479.837C486.953 416.322 476.908 391.869 440.265 380.385Z" fill="url(#paint2_linear_26_2)"/>
<path d="M827.651 410.379C820.66 405.924 753.876 433.974 708.101 461.328C701.184 465.435 708.696 401.507 771.315 345.792C812.516 308.947 880.825 339.167 929.538 326.072C940.693 323.011 885.362 419.058 853.94 450.479C798.869 505.729 704.791 483.296 720.372 478.104C786.301 456.059 831.629 412.898 827.651 410.379Z" fill="url(#paint3_linear_26_2)"/>
<path d="M820.743 663.19C817.477 656.277 753.475 644.304 705.919 642.257C698.717 641.948 733.984 596.951 807.379 585.673C855.863 578.18 894.101 635.382 937.313 649.788C946.409 652.801 862.879 698.029 822.228 706.835C754.663 721.434 693.111 657.281 707.441 661.105C767.99 677.365 822.525 667.13 820.743 663.19Z" fill="url(#paint4_linear_26_2)"/>
<path d="M910.869 540.364C908.749 534.981 861.249 522.125 825.541 517.749C820.147 517.091 849.161 485.26 905.067 481.117C942.003 478.406 967.631 523.713 999.434 537.227C1006.87 540.325 939.027 569.368 909.53 573.357C857.827 580.327 815.051 528.282 825.615 532.154C870.4 547.915 912.06 543.423 910.869 540.364Z" fill="url(#paint5_linear_26_2)"/>
<path d="M752.375 255.866C745.469 255.476 706.667 304.34 683.126 343.884C679.413 349.85 660.848 298.919 685.8 231.18C702.323 186.411 764.517 180.483 795.669 150.299C802.167 144.098 799.085 236.094 787.055 275.092C767.301 339.438 688.919 361.979 698.461 351.566C739.119 307.343 756.311 256.061 752.375 255.866Z" fill="url(#paint6_linear_26_2)"/>
<path d="M483.966 202.313C479.595 207.016 488.226 263.606 499.958 303.833C501.714 309.896 457.252 293.106 428.034 235.155C408.718 196.872 442.045 149.027 441.036 108.955C440.775 99.7822 499.883 158.976 517.144 188.904C547.296 241.102 515.09 310.285 514.081 297.342C509.597 242.229 486.47 199.67 483.966 202.313Z" fill="url(#paint7_linear_26_2)"/>
<path d="M597.389 194.367C602.179 198.253 600.248 255.035 593.416 295.998C592.376 302.178 633.852 280.141 655.723 219.59C670.204 179.559 632.218 136.73 628.579 97.2823C627.54 85.3897 574.478 159.466 563.45 185.311C540.02 240.305 579.38 304.238 578.934 291.373C576.966 236.652 594.641 191.996 597.389 194.367Z" fill="url(#paint8_linear_26_2)"/>
<path d="M353.294 201.581C351.881 205.161 368.175 234.159 382.647 253.517C384.842 256.468 357.498 257.452 329.894 232.153C311.702 215.549 319.849 181.869 311.106 160.15C308.465 153.618 355.75 176.596 368.398 186.787C395.296 208.584 392.134 253.675 388.897 246.829C375.244 217.713 354.075 199.574 353.294 201.581Z" fill="url(#paint9_linear_26_2)"/>
<path d="M259.506 342.551C290.366 363.429 290.884 393.599 316.521 423.809C207.714 462.454 212.789 308.765 190.561 278.245C188.931 276.068 191.265 275.796 192.339 276.107C224.274 285.593 264.989 295.546 290.736 314.053C336.934 346.983 332.229 422.914 326.338 412.184C301.146 365.917 279.881 342.512 259.506 342.551Z" fill="url(#paint10_linear_26_2)"/>
<path d="M145.297 616.75C148.451 613.35 187.489 619.291 215.209 627.733C219.403 628.983 207.416 595.684 167.265 574.267C140.77 560.119 108.226 585.718 80.654 585.366C74.3085 585.366 115.722 629.218 136.317 641.842C172.497 664.002 219.699 639.067 210.793 638.402C172.98 635.627 143.479 618.626 145.297 616.75Z" fill="url(#paint11_linear_26_2)"/>
<path d="M148.608 395.797C148.608 399.959 176.41 422.539 198.785 436.026C202.167 438.068 174.254 450.36 136.157 436.488C111.031 427.356 106.422 389.863 89.2133 371.56C85.2363 367.36 137.941 368.323 158.569 374.488C194.659 385.239 208.598 432.288 202.688 426.585C177.339 402.849 148.682 393.408 148.608 395.797Z" fill="url(#paint12_linear_26_2)"/>
<path d="M622.187 385.85C617.224 386.474 595.408 426.59 583.371 458.013C581.593 462.77 561.999 428.852 571.666 377.039C578.074 342.809 621.743 330.256 640.336 304.564C645.929 296.767 652.225 372.01 649.225 394.856C642.892 443.51 589.667 470.06 595.26 461.366C618.965 424.368 625.002 385.46 622.187 385.85Z" fill="url(#paint13_linear_26_2)"/>
<path d="M263.014 710.811C302.456 697.851 327.298 712.26 366.702 704.194C373.071 702.902 356.87 737.396 298.62 772.204C260.109 795.226 210.015 759.675 169.046 762.259C159.437 762.885 218.395 694.406 248.116 674.203C300.258 638.573 374.486 669.074 361.265 670.718C304.951 677.727 276.869 693.466 263.014 710.811Z" fill="url(#paint14_linear_26_2)"/>
<path d="M673.228 456C686.118 596.529 633.036 673.457 580.735 679.381C500.053 688.461 458.71 626.03 343 691.812C427.619 667.884 473.011 706.816 482.409 740.916C498.01 797.735 462.945 882.497 493.813 974C534.934 738.928 757.141 797.579 673.228 456Z" fill="url(#paint15_linear_26_2)"/>
<path d="M500 984C523.085 832.604 664.388 804.695 675 709C664.388 892.515 605.707 827.653 500 984Z" fill="url(#paint16_linear_26_2)"/>
<path d="M648 844C609.462 912.618 550.74 911.099 515 984C569.655 920.172 633.226 954.286 648 844Z" fill="url(#paint17_linear_26_2)"/>
<defs>
<radialGradient id="paint0_radial_26_2" cx="0" cy="0" r="1" gradientUnits="userSpaceOnUse" gradientTransform="translate(547.148 526.79) scale(164.478 172.439)">
<stop stop-color="#C3996B"/>
<stop offset="0.37" stop-color="#A1774E"/>
<stop offset="0.77" stop-color="#815832"/>
<stop offset="1" stop-color="#754C28"/>
</radialGradient>
<linearGradient id="paint1_linear_26_2" x1="171.995" y1="538.008" x2="413.053" y2="538.008" gradientUnits="userSpaceOnUse">
<stop stop-color="#F6921E"/>
<stop offset="0.18" stop-color="#F58620"/>
<stop offset="0.71" stop-color="#F16626"/>
<stop offset="1" stop-color="#F05A28"/>
</linearGradient>
<linearGradient id="paint2_linear_26_2" x1="366.942" y1="291.754" x2="511.136" y2="501.152" gradientUnits="userSpaceOnUse">
<stop stop-color="#98C93C"/>
<stop offset="1" stop-color="#009345"/>
</linearGradient>
<linearGradient id="paint3_linear_26_2" x1="914.515" y1="318.129" x2="709.853" y2="466.642" gradientUnits="userSpaceOnUse">
<stop stop-color="#A2238D"/>
<stop offset="0.17" stop-color="#91268E"/>
<stop offset="0.48" stop-color="#792A8F"/>
<stop offset="0.76" stop-color="#6A2C90"/>
<stop offset="1" stop-color="#652D90"/>
</linearGradient>
<linearGradient id="paint4_linear_26_2" x1="929.963" y1="630.515" x2="678.154" y2="662.529" gradientUnits="userSpaceOnUse">
<stop stop-color="#ED3024"/>
<stop offset="1" stop-color="#AD1B1F"/>
</linearGradient>
<linearGradient id="paint5_linear_26_2" x1="1002.17" y1="513.085" x2="838.824" y2="535.071" gradientUnits="userSpaceOnUse">
<stop stop-color="#F6921E"/>
<stop offset="0.18" stop-color="#F58620"/>
<stop offset="0.71" stop-color="#F16626"/>
<stop offset="1" stop-color="#F05A28"/>
</linearGradient>
<linearGradient id="paint6_linear_26_2" x1="794.036" y1="149.597" x2="672.243" y2="350.761" gradientUnits="userSpaceOnUse">
<stop stop-color="#98C93C"/>
<stop offset="1" stop-color="#009345"/>
</linearGradient>
<linearGradient id="paint7_linear_26_2" x1="438.944" y1="114.824" x2="526.957" y2="345.82" gradientUnits="userSpaceOnUse">
<stop stop-color="#1FC3F3"/>
<stop offset="0.17" stop-color="#1EB5E8"/>
<stop offset="0.48" stop-color="#1D8FCC"/>
<stop offset="0.92" stop-color="#1B549F"/>
<stop offset="1" stop-color="#1A4796"/>
</linearGradient>
<linearGradient id="paint8_linear_26_2" x1="632.775" y1="91.2972" x2="577.582" y2="326.793" gradientUnits="userSpaceOnUse">
<stop stop-color="#F6921E"/>
<stop offset="0.18" stop-color="#F58620"/>
<stop offset="0.71" stop-color="#F16626"/>
<stop offset="1" stop-color="#F05A28"/>
</linearGradient>
<linearGradient id="paint9_linear_26_2" x1="308.812" y1="160.754" x2="404.616" y2="264.086" gradientUnits="userSpaceOnUse">
<stop stop-color="#A2238D"/>
<stop offset="0.17" stop-color="#91268E"/>
<stop offset="0.48" stop-color="#792A8F"/>
<stop offset="0.76" stop-color="#6A2C90"/>
<stop offset="1" stop-color="#652D90"/>
</linearGradient>
<linearGradient id="paint10_linear_26_2" x1="189.894" y1="352.971" x2="329.895" y2="352.971" gradientUnits="userSpaceOnUse">
<stop stop-color="#EC1C24"/>
<stop offset="1" stop-color="#AD1B1F"/>
</linearGradient>
<linearGradient id="paint11_linear_26_2" x1="76.1643" y1="579.009" x2="231.203" y2="624.155" gradientUnits="userSpaceOnUse">
<stop stop-color="#A2238D"/>
<stop offset="0.17" stop-color="#91268E"/>
<stop offset="0.48" stop-color="#792A8F"/>
<stop offset="0.76" stop-color="#6A2C90"/>
<stop offset="1" stop-color="#652D90"/>
</linearGradient>
<linearGradient id="paint12_linear_26_2" x1="81.7334" y1="367.095" x2="209.323" y2="435.633" gradientUnits="userSpaceOnUse">
<stop stop-color="#98C93C"/>
<stop offset="1" stop-color="#009345"/>
</linearGradient>
<linearGradient id="paint13_linear_26_2" x1="627.78" y1="310.412" x2="583.515" y2="486.03" gradientUnits="userSpaceOnUse">
<stop stop-color="#1FC3F3"/>
<stop offset="0.17" stop-color="#1EB5E8"/>
<stop offset="0.48" stop-color="#1D8FCC"/>
<stop offset="0.92" stop-color="#1B549F"/>
<stop offset="1" stop-color="#1A4796"/>
</linearGradient>
<linearGradient id="paint14_linear_26_2" x1="195.324" y1="757.056" x2="373.033" y2="686.126" gradientUnits="userSpaceOnUse">
<stop stop-color="#98C93C"/>
<stop offset="1" stop-color="#009345"/>
</linearGradient>
<linearGradient id="paint15_linear_26_2" x1="534.265" y1="540.099" x2="442.21" y2="1099.11" gradientUnits="userSpaceOnUse">
<stop stop-color="#C3996B"/>
<stop offset="0.37" stop-color="#A1774E"/>
<stop offset="0.77" stop-color="#815832"/>
<stop offset="1" stop-color="#754C28"/>
</linearGradient>
<linearGradient id="paint16_linear_26_2" x1="601.835" y1="731.608" x2="567.975" y2="990.635" gradientUnits="userSpaceOnUse">
<stop stop-color="#98C93C"/>
<stop offset="1" stop-color="#009345"/>
</linearGradient>
<linearGradient id="paint17_linear_26_2" x1="627.332" y1="820.245" x2="508.44" y2="1066.25" gradientUnits="userSpaceOnUse">
<stop stop-color="#98C93C"/>
<stop offset="1" stop-color="#009345"/>
</linearGradient>
</defs>
</svg>
